<?xml version="1.0" encoding="utf-8"?>
<svg stroke-linecap="round" font-size="12" font-family="Segoe UI" width="485.7233333333333" height="336.96000000000004" xmlns:xlink="http://www.w3.org/1999/xlink" xmlns="http://www.w3.org/2000/svg">
  <defs />
  <g transform="translate(942,529)">
    <g id="Applicative-&gt;Functor">
      <path d="M -807.881999182059,-412 L -847.12242702921,-475.387638592472" fill="none" stroke="#A0A0A0" stroke-width="1" />
      <path d="M -851.859658804052,-483.04 L -849.997117457574,-472.431939869483 C -848.256110200696,-474.68582647768 -845.988743857725,-476.089450707263 -843.19501842866,-476.642812558231 z" fill="#A0A0A0" stroke="#A0A0A0" stroke-width="1" stroke-linejoin="round" />
    </g>
    <g id="Applicative-&gt;Pure">
      <path d="M -796.388009621993,-412 L -779.775946795781,-474.343439288465" fill="none" stroke="#A0A0A0" stroke-width="1" />
      <path d="M -777.458657044673,-483.04 L -783.898561528809,-474.407061321009 C -781.064326160453,-474.686741473815 -778.487567431109,-474.000137103116 -776.168285340778,-472.347248208913 z" fill="#A0A0A0" stroke="#A0A0A0" stroke-width="1" stroke-linejoin="round" />
    </g>
    <g id="Applicative-&gt;Seq">
      <path d="M -785.682854982818,-412 L -714.799014210374,-476.959367842732" fill="none" stroke="#A0A0A0" stroke-width="1" />
      <path d="M -708.163811683849,-483.04 L -718.238762116551,-479.232720948158 C -715.699848604043,-477.942360809625 -713.898179816704,-475.97637487584 -712.833755754535,-473.334763146803 z" fill="#A0A0A0" stroke="#A0A0A0" stroke-width="1" stroke-linejoin="round" />
    </g>
    <g id="Applicative-&gt;SeqLeft">
      <path d="M -774.344312027491,-412 L -642.789872940275,-478.957606209781" fill="none" stroke="#A0A0A0" stroke-width="1" />
      <path d="M -634.769021305842,-483.04 L -645.495475917531,-482.068829848393 C -643.394672020307,-480.145880525993 -642.185073860242,-477.769331893569 -641.866681437336,-474.93918395112 z" fill="#A0A0A0" stroke="#A0A0A0" stroke-width="1" stroke-linejoin="round" />
    </g>
    <g id="Applicative-&gt;SeqRight">
      <path d="M -762.225406557428,-411.616331588423 L -552.255039618581,-481.91850535998" fill="none" stroke="#A0A0A0" stroke-width="1" />
      <path d="M -543.720702607113,-484.775967831244 L -554.473282607084,-485.394048201604 C -552.678367392102,-483.182851583901 -551.831711845061,-480.654159136059 -551.93331596596,-477.807970858076 z" fill="#A0A0A0" stroke="#A0A0A0" stroke-width="1" stroke-linejoin="round" />
    </g>
    <g id="Except-&gt;Monad">
      <path d="M -628.54177821476,-238 L -713.286115417717,-307.340644788866" fill="none" stroke="#A0A0A0" stroke-width="1" />
      <path d="M -720.25155511506,-313.04 L -715.045224434072,-303.611632122143 C -714.130464337885,-306.308727796667 -712.441766497549,-308.372561781065 -709.979130913064,-309.803134075337 z" fill="#A0A0A0" stroke="#A0A0A0" stroke-width="1" stroke-linejoin="round" />
    </g>
    <g id="List-&gt;Functor">
      <path d="M -892.034814302334,-412 L -868.075682352572,-474.634018472681" fill="none" stroke="#A0A0A0" stroke-width="1" />
      <path d="M -864.86017701711,-483.04 L -872.168952513098,-475.129134007629 C -869.321012949211,-475.110389633491 -866.830351755932,-474.157647311872 -864.696968933259,-472.270907042774 z" fill="#A0A0A0" stroke="#A0A0A0" stroke-width="1" stroke-linejoin="round" />
    </g>
    <g id="Monad-&gt;Applicative">
      <path d="M -747.447014155251,-339 L -782.595654197137,-379.260216894652" fill="none" stroke="#A0A0A0" stroke-width="1" />
      <path d="M -788.514652511416,-386.04 L -784.951224653483,-375.876241743267 C -783.60006650904,-378.383328255499 -781.591241885233,-380.137105533804 -778.924750782062,-381.137573578181 z" fill="#A0A0A0" stroke="#A0A0A0" stroke-width="1" stroke-linejoin="round" />
    </g>
    <g id="Monad-&gt;Bind">
      <path d="M -725.919943874952,-339 L -693.754264838054,-379.952252619104" fill="none" stroke="#A0A0A0" stroke-width="1" />
      <path d="M -688.195056125048,-387.030048779297 L -697.517641877363,-381.63659025153 C -694.802827232157,-380.775839095105 -692.705702443952,-379.128666143103 -691.226267512747,-376.695071395525 z" fill="#A0A0A0" stroke="#A0A0A0" stroke-width="1" stroke-linejoin="round" />
    </g>
    <g id="Option-&gt;Monad">
      <path d="M -864.268343561295,-238 L -762.432008248796,-307.944599064783" fill="none" stroke="#A0A0A0" stroke-width="1" />
      <path d="M -755.013323101859,-313.04 L -765.52092923633,-310.675636803953 C -763.186882461421,-309.043663530996 -761.677134036171,-306.84553459857 -760.991683960582,-304.081250006675 z" fill="#A0A0A0" stroke="#A0A0A0" stroke-width="1" stroke-linejoin="round" />
    </g>
    <g id="ReaderM-&gt;Monad">
      <path d="M -783.918865343473,-238 L -747.459792323795,-305.13113226586" fill="none" stroke="#A0A0A0" stroke-width="1" />
      <path d="M -743.164467986347,-313.04 L -751.452102909796,-306.161402223154 C -748.631476432557,-305.767476612148 -746.288108215034,-304.494787919571 -744.421998257227,-302.343336145423 z" fill="#A0A0A0" stroke="#A0A0A0" stroke-width="1" stroke-linejoin="round" />
    </g>
    <g id="StateM-&gt;Monad">
      <path d="M -703.400899996939,-238 L -728.155322867628,-304.603828345398" fill="none" stroke="#A0A0A0" stroke-width="1" />
      <path d="M -731.290766666215,-313.04 L -731.556349847608,-302.272945362182 C -729.405126075717,-304.139318153015 -726.905519659539,-305.068338537782 -724.057530599073,-305.060006516481 z" fill="#A0A0A0" stroke="#A0A0A0" stroke-width="1" stroke-linejoin="round" />
    </g>
    <g id="ST-&gt;Monad">
      <path d="M -554.704717232462,-236.944239483112 L -701.678005389345,-309.110806992507" fill="none" stroke="#A0A0A0" stroke-width="1" />
      <path d="M -709.756664992462,-313.077576335053 L -702.543385141241,-305.079539464172 C -702.265674921573,-307.913968532786 -701.090335857116,-310.307645452228 -699.017367947867,-312.260570222499 z" fill="#A0A0A0" stroke="#A0A0A0" stroke-width="1" stroke-linejoin="round" />
    </g>
    <g id="Applicative">
      <rect x="-839" y="-412" rx="3" ry="3" width="78.3066666666667" height="25.96" fill="#FFFFFF" stroke="#A5A6A9" stroke-width="1" />
      <text x="-829" y="-394.05" fill="#3D3D3D">Applicative</text>
    </g>
    <g id="Bind">
      <rect x="-703" y="-412.990048779297" rx="3" ry="3" width="50" height="25.96" fill="#FFFFFF" stroke="#A5A6A9" stroke-width="1" />
      <text x="-690" y="-395.040048779297" fill="#3D3D3D">Bind</text>
    </g>
    <g id="Except">
      <rect x="-639.9366666631538" y="-238" rx="3" ry="3" width="54.516666666666652" height="25.960000000000036" fill="#91E7ED" stroke="#A5A6A9" stroke-width="1" />
      <text x="-629.9366666631538" y="-220.05" fill="#3D3D3D">Except</text>
    </g>
    <g id="Functor">
      <rect x="-890.021657986111" y="-509" rx="3" ry="3" width="60.2533333333333" height="25.96" fill="#FFFFFF" stroke="#A5A6A9" stroke-width="1" />
      <text x="-880.021657986111" y="-491.05" fill="#3D3D3D">Functor</text>
    </g>
    <g id="List">
      <rect x="-922" y="-412" rx="3" ry="3" width="50" height="25.96" fill="#91E7ED" stroke="#A5A6A9" stroke-width="1" />
      <text x="-906" y="-394.05" fill="#3D3D3D">List</text>
    </g>
    <g id="Monad">
      <rect x="-765" y="-339" rx="3" ry="3" width="57.77" height="25.96" fill="#FFFFFF" stroke="#A5A6A9" stroke-width="1" />
      <text x="-755" y="-321.05" fill="#3D3D3D">Monad</text>
    </g>
    <g id="Option">
      <rect x="-911.61333332982053" y="-238" rx="3" ry="3" width="56.89333333333343" height="25.960000000000036" fill="#91E7ED" stroke="#A5A6A9" stroke-width="1" />
      <text x="-901.61333332982053" y="-220.05" fill="#3D3D3D">Option</text>
    </g>
    <g id="Pure">
      <rect x="-799" y="-509" rx="3" ry="3" width="50" height="25.96" fill="#FFFFFF" stroke="#A5A6A9" stroke-width="1" />
      <text x="-786" y="-491.05" fill="#3D3D3D">Pure</text>
    </g>
    <g id="ReaderM">
      <rect x="-824.7199999964871" y="-238" rx="3" ry="3" width="67.50333333333333" height="25.960000000000036" fill="#91E7ED" stroke="#A5A6A9" stroke-width="1" />
      <text x="-814.7199999964871" y="-220.05" fill="#3D3D3D">ReaderM</text>
    </g>
    <g id="Seq">
      <rect x="-719" y="-509" rx="3" ry="3" width="50" height="25.96" fill="#FFFFFF" stroke="#A5A6A9" stroke-width="1" />
      <text x="-704" y="-491.05" fill="#3D3D3D">Seq</text>
    </g>
    <g id="SeqLeft">
      <rect x="-639" y="-509" rx="3" ry="3" width="59.4666666666667" height="25.96" fill="#FFFFFF" stroke="#A5A6A9" stroke-width="1" />
      <text x="-629" y="-491.05" fill="#3D3D3D">SeqLeft</text>
    </g>
    <g id="SeqRight">
      <rect x="-544" y="-509" rx="3" ry="3" width="67.7233333333333" height="25.96" fill="#FFFFFF" stroke="#A5A6A9" stroke-width="1" />
      <text x="-534" y="-491.05" fill="#3D3D3D">SeqRight</text>
    </g>
    <g id="StateM">
      <rect x="-727.21666666315377" y="-238" rx="3" ry="3" width="57.279999999999973" height="25.960000000000036" fill="#91E7ED" stroke="#A5A6A9" stroke-width="1" />
      <text x="-717.21666666315377" y="-220.05" fill="#3D3D3D">StateM</text>
    </g>
    <g id="ST">
      <rect x="-555.42" y="-238.00000000000006" rx="3" ry="3" width="50" height="25.960000000000036" fill="#91E7ED" stroke="#A5A6A9" stroke-width="1" />
      <text x="-537.42" y="-220.05000000000007" fill="#3D3D3D">ST</text>
    </g>
  </g>
</svg>
