#define lean_width 277
#define lean_height 145
static unsigned char lean_bits[] = {
   0x00, 0x00, 0x00, 0x00, 0x00, 0x00, 0x00, 0x00, 0x00, 0x00, 0x00, 0x00,
   0x00, 0x00, 0x00, 0x00, 0x00, 0x00, 0x00, 0x00, 0x00, 0x00, 0x00, 0x00,
   0x00, 0x00, 0x00, 0x00, 0x00, 0x00, 0x00, 0x00, 0x00, 0x00, 0x00, 0x00,
   0x00, 0x00, 0x00, 0x00, 0x00, 0x00, 0x00, 0x00, 0x00, 0x00, 0x00, 0x00,
   0x00, 0x00, 0x00, 0x00, 0x00, 0x00, 0x00, 0x00, 0x00, 0x00, 0x00, 0x00,
   0x00, 0x00, 0x00, 0x00, 0x00, 0x00, 0x00, 0x00, 0x00, 0x00, 0x00, 0x00,
   0x00, 0x00, 0x00, 0x00, 0x00, 0x00, 0x00, 0x00, 0x00, 0x00, 0x00, 0x00,
   0x00, 0x00, 0x00, 0x00, 0x00, 0x00, 0x00, 0x00, 0x00, 0x00, 0x00, 0x00,
   0x00, 0x00, 0x00, 0x00, 0x00, 0x00, 0x00, 0x00, 0x00, 0x00, 0x00, 0x00,
   0x00, 0x00, 0x00, 0x00, 0x00, 0x00, 0x00, 0x00, 0x00, 0x00, 0x00, 0x00,
   0x00, 0x00, 0x00, 0x00, 0x00, 0x00, 0x00, 0x00, 0x00, 0x00, 0x00, 0x00,
   0x00, 0x00, 0x00, 0x00, 0x00, 0x00, 0x00, 0x00, 0x00, 0x00, 0x00, 0x00,
   0x00, 0x00, 0x00, 0x00, 0x00, 0x00, 0x00, 0x00, 0x00, 0x00, 0x00, 0x00,
   0x00, 0x00, 0x00, 0x00, 0x00, 0x00, 0x00, 0x00, 0x00, 0x00, 0x00, 0x00,
   0x00, 0x00, 0x00, 0x00, 0x00, 0x00, 0x00, 0x18, 0x00, 0x00, 0x00, 0x00,
   0x00, 0x00, 0xf0, 0xff, 0xff, 0xff, 0xff, 0xff, 0xff, 0x1f, 0x00, 0x00,
   0x00, 0x00, 0x00, 0x00, 0x00, 0x00, 0x00, 0x80, 0x03, 0x00, 0x00, 0x00,
   0x00, 0x00, 0x00, 0x00, 0xc0, 0x01, 0x38, 0x00, 0x00, 0x00, 0x00, 0x00,
   0x00, 0xf0, 0xff, 0xff, 0xff, 0xff, 0xff, 0xff, 0x3f, 0x00, 0x00, 0x00,
   0x00, 0x00, 0x00, 0x00, 0x00, 0x00, 0x80, 0x03, 0x00, 0x00, 0x00, 0x00,
   0x00, 0x00, 0x00, 0x80, 0x01, 0x38, 0x00, 0x00, 0x00, 0x00, 0x00, 0x00,
   0x00, 0x00, 0x00, 0x00, 0x00, 0x00, 0x00, 0x38, 0x00, 0x00, 0x00, 0x00,
   0x00, 0x00, 0x00, 0x00, 0x00, 0xc0, 0x07, 0x00, 0x00, 0x00, 0x00, 0x00,
   0x00, 0x00, 0x80, 0x01, 0x18, 0x00, 0x00, 0x00, 0x00, 0x00, 0x00, 0x00,
   0x00, 0x00, 0x00, 0x00, 0x00, 0x00, 0x78, 0x00, 0x00, 0x00, 0x00, 0x00,
   0x00, 0x00, 0x00, 0x00, 0xc0, 0x0f, 0x00, 0x00, 0x00, 0x00, 0x00, 0x00,
   0x00, 0xc0, 0x01, 0x38, 0x00, 0x00, 0x00, 0x00, 0x00, 0x00, 0x00, 0x00,
   0x00, 0x00, 0x00, 0x00, 0x00, 0x78, 0x00, 0x00, 0x00, 0x00, 0x00, 0x00,
   0x00, 0x00, 0x00, 0xe0, 0x1f, 0x00, 0x00, 0x00, 0x00, 0x00, 0x00, 0x00,
   0x80, 0x01, 0x38, 0x00, 0x00, 0x00, 0x00, 0x00, 0x00, 0x00, 0x00, 0x00,
   0x00, 0x00, 0x00, 0x00, 0x78, 0x00, 0x00, 0x00, 0x00, 0x00, 0x00, 0x00,
   0x00, 0x00, 0xe0, 0x1f, 0x00, 0x00, 0x00, 0x00, 0x00, 0x00, 0x00, 0xc0,
   0x01, 0x38, 0x00, 0x00, 0x00, 0x00, 0x00, 0x00, 0x00, 0x00, 0x00, 0x00,
   0x00, 0x00, 0x00, 0xf8, 0x00, 0x00, 0x00, 0x00, 0x00, 0x00, 0x00, 0x00,
   0x00, 0xe0, 0x3b, 0x00, 0x00, 0x00, 0x00, 0x00, 0x00, 0x00, 0x80, 0x01,
   0x18, 0x00, 0x00, 0x00, 0x00, 0x00, 0x00, 0x00, 0x00, 0x00, 0x00, 0x00,
   0x00, 0x00, 0xf8, 0x00, 0x00, 0x00, 0x00, 0x00, 0x00, 0x00, 0x00, 0x00,
   0x70, 0x73, 0x00, 0x00, 0x00, 0x00, 0x00, 0x00, 0x00, 0xc0, 0x01, 0x38,
   0x00, 0x00, 0x00, 0x00, 0x00, 0x00, 0x00, 0x00, 0x00, 0x00, 0x00, 0x00,
   0x00, 0xd8, 0x01, 0x00, 0x00, 0x00, 0x00, 0x00, 0x00, 0x00, 0x00, 0xb0,
   0x73, 0x00, 0x00, 0x00, 0x00, 0x00, 0x00, 0x00, 0x80, 0x01, 0x38, 0x00,
   0x00, 0x00, 0x00, 0x00, 0x00, 0x00, 0x00, 0x00, 0x00, 0x00, 0x00, 0x00,
   0xd8, 0x01, 0x00, 0x00, 0x00, 0x00, 0x00, 0x00, 0x00, 0x00, 0xb8, 0xe3,
   0x00, 0x00, 0x00, 0x00, 0x00, 0x00, 0x00, 0xc0, 0x01, 0x38, 0x00, 0x00,
   0x00, 0x00, 0x00, 0x00, 0x00, 0x00, 0x00, 0x00, 0x00, 0x00, 0x00, 0x98,
   0x03, 0x00, 0x00, 0x00, 0x00, 0x00, 0x00, 0x00, 0x00, 0x98, 0xc3, 0x01,
   0x00, 0x00, 0x00, 0x00, 0x00, 0x00, 0x80, 0x01, 0x18, 0x00, 0x00, 0x00,
   0x00, 0x00, 0x00, 0x00, 0x00, 0x00, 0x00, 0x00, 0x00, 0x00, 0xb8, 0x03,
   0x00, 0x00, 0x00, 0x00, 0x00, 0x00, 0x00, 0x00, 0x98, 0xc3, 0x01, 0x00,
   0x00, 0x00, 0x00, 0x00, 0x00, 0xc0, 0x01, 0x38, 0x00, 0x00, 0x00, 0x00,
   0x00, 0x00, 0x00, 0x00, 0x00, 0x00, 0x00, 0x00, 0x00, 0x18, 0x03, 0x00,
   0x00, 0x00, 0x00, 0x00, 0x00, 0x00, 0x00, 0x9c, 0x83, 0x03, 0x00, 0x00,
   0x00, 0x00, 0x00, 0x00, 0x80, 0x01, 0x18, 0x00, 0x00, 0x00, 0x00, 0x00,
   0x00, 0x00, 0x00, 0x00, 0x00, 0x00, 0x00, 0x00, 0x38, 0x07, 0x00, 0x00,
   0x00, 0x00, 0x00, 0x00, 0x00, 0x00, 0x8c, 0x03, 0x07, 0x00, 0x00, 0x00,
   0x00, 0x00, 0x00, 0xc0, 0x01, 0x38, 0x00, 0x00, 0x00, 0x00, 0x00, 0x00,
   0x00, 0x00, 0x00, 0x00, 0x00, 0x00, 0x00, 0x18, 0x06, 0x00, 0x00, 0x00,
   0x00, 0x00, 0x00, 0x00, 0x00, 0x0e, 0x03, 0x07, 0x00, 0x00, 0x00, 0x00,
   0x00, 0x00, 0x80, 0x01, 0x38, 0x00, 0x00, 0x00, 0x00, 0x00, 0x00, 0x00,
   0x00, 0x00, 0x00, 0x00, 0x00, 0x00, 0x38, 0x0e, 0x00, 0x00, 0x00, 0x00,
   0x00, 0x00, 0x00, 0x00, 0x86, 0x03, 0x0e, 0x00, 0x00, 0x00, 0x00, 0x00,
   0x00, 0xc0, 0x01, 0x38, 0x00, 0x00, 0x00, 0x00, 0x00, 0x00, 0x00, 0x00,
   0x00, 0x00, 0x00, 0x00, 0x00, 0x18, 0x0c, 0x00, 0x00, 0x00, 0x00, 0x00,
   0x00, 0x00, 0x00, 0x87, 0x03, 0x1c, 0x00, 0x00, 0x00, 0x00, 0x00, 0x00,
   0x80, 0x01, 0x18, 0x00, 0x00, 0x00, 0x00, 0x00, 0x00, 0x00, 0x00, 0x00,
   0x00, 0x00, 0x00, 0x00, 0x38, 0x1c, 0x00, 0x00, 0x00, 0x00, 0x00, 0x00,
   0x00, 0x00, 0x87, 0x03, 0x3c, 0x00, 0x00, 0x00, 0x00, 0x00, 0x00, 0xc0,
   0x01, 0x38, 0x00, 0x00, 0x00, 0x00, 0x00, 0x00, 0x00, 0x00, 0x00, 0x00,
   0x00, 0x00, 0x00, 0x18, 0x18, 0x00, 0x00, 0x00, 0x00, 0x00, 0x00, 0x00,
   0x00, 0x83, 0x03, 0x38, 0x00, 0x00, 0x00, 0x00, 0x00, 0x00, 0x80, 0x01,
   0x18, 0x00, 0x00, 0x00, 0x00, 0x00, 0x00, 0x00, 0x00, 0x00, 0x00, 0x00,
   0x00, 0x00, 0x38, 0x1c, 0x00, 0x00, 0x00, 0x00, 0x00, 0x00, 0x00, 0x80,
   0x83, 0x03, 0x70, 0x00, 0x00, 0x00, 0x00, 0x00, 0x00, 0xc0, 0x01, 0x38,
   0x00, 0x00, 0x00, 0x00, 0x00, 0x00, 0x00, 0x00, 0x00, 0x00, 0x00, 0x00,
   0x00, 0x18, 0x38, 0x00, 0x00, 0x00, 0x00, 0x00, 0x00, 0x00, 0x80, 0x01,
   0x03, 0xe0, 0x00, 0x00, 0x00, 0x00, 0x00, 0x00, 0x80, 0x01, 0x38, 0x00,
   0x00, 0x00, 0x00, 0x00, 0x00, 0x00, 0x00, 0x00, 0x00, 0x00, 0x00, 0x00,
   0x38, 0x30, 0x00, 0x00, 0x00, 0x00, 0x00, 0x00, 0x00, 0xc0, 0x81, 0x03,
   0xe0, 0x00, 0x00, 0x00, 0x00, 0x00, 0x00, 0xc0, 0x01, 0x38, 0x00, 0x00,
   0x00, 0x00, 0x00, 0x00, 0x00, 0x00, 0x00, 0x00, 0x00, 0x00, 0x00, 0x18,
   0x70, 0x00, 0x00, 0x00, 0x00, 0x00, 0x00, 0x00, 0xc0, 0x81, 0x03, 0xc0,
   0x01, 0x00, 0x00, 0x00, 0x00, 0x00, 0x80, 0x01, 0x18, 0x00, 0x00, 0x00,
   0x00, 0x00, 0x00, 0x00, 0x00, 0x00, 0x00, 0x00, 0x00, 0x00, 0x38, 0x70,
   0x00, 0x00, 0x00, 0x00, 0x00, 0x00, 0x00, 0xe0, 0x80, 0x03, 0x80, 0x03,
   0x00, 0x00, 0x00, 0x00, 0x00, 0xc0, 0x01, 0x38, 0x00, 0x00, 0x00, 0x00,
   0x00, 0x00, 0x00, 0x00, 0x00, 0x00, 0x00, 0x00, 0x00, 0x18, 0x60, 0x00,
   0x00, 0x00, 0x00, 0x00, 0x00, 0x00, 0xe0, 0x80, 0x03, 0x80, 0x03, 0x00,
   0x00, 0x00, 0x00, 0x00, 0x80, 0x01, 0x18, 0x00, 0x00, 0x00, 0x00, 0x00,
   0x00, 0x00, 0x00, 0x00, 0x00, 0x00, 0x00, 0x00, 0x38, 0xe0, 0x00, 0x00,
   0x00, 0x00, 0x00, 0x00, 0x00, 0x60, 0x80, 0x03, 0x00, 0x07, 0x00, 0x00,
   0x00, 0x00, 0x00, 0xc0, 0x01, 0x38, 0x00, 0x00, 0x00, 0x00, 0x00, 0x00,
   0x00, 0x00, 0x00, 0x00, 0x00, 0x00, 0x00, 0x18, 0xc0, 0x00, 0x00, 0x00,
   0x00, 0x00, 0x00, 0x00, 0x70, 0x00, 0x03, 0x00, 0x0e, 0x00, 0x00, 0x00,
   0x00, 0x00, 0x80, 0x01, 0x38, 0x00, 0x00, 0x00, 0x00, 0x00, 0x00, 0x00,
   0x00, 0x00, 0x00, 0x00, 0x00, 0x00, 0x38, 0xc0, 0x01, 0x00, 0x00, 0x00,
   0x00, 0x00, 0x00, 0x30, 0x80, 0x03, 0x00, 0x0c, 0x00, 0x00, 0x00, 0x00,
   0x00, 0xc0, 0x01, 0x38, 0x00, 0x00, 0x00, 0x00, 0x00, 0x00, 0x00, 0x00,
   0x00, 0x00, 0x00, 0x00, 0x00, 0x18, 0x80, 0x01, 0x00, 0x00, 0x00, 0x00,
   0x00, 0x00, 0x38, 0x80, 0x03, 0x00, 0x1c, 0x00, 0x00, 0x00, 0x00, 0x00,
   0x80, 0x01, 0x18, 0x00, 0x00, 0x00, 0x00, 0x00, 0x00, 0x00, 0x00, 0x00,
   0x00, 0x00, 0x00, 0x00, 0x38, 0x80, 0x03, 0x00, 0x00, 0x00, 0x00, 0x00,
   0x00, 0x38, 0x80, 0x03, 0x00, 0x38, 0x00, 0x00, 0x00, 0x00, 0x00, 0xc0,
   0x01, 0x38, 0x00, 0x00, 0x00, 0x00, 0x00, 0x00, 0x00, 0x00, 0x00, 0x00,
   0x00, 0x00, 0x00, 0x18, 0x80, 0x03, 0x00, 0x00, 0x00, 0x00, 0x00, 0x00,
   0x18, 0x80, 0x03, 0x00, 0x38, 0x00, 0x00, 0x00, 0x00, 0x00, 0x80, 0x01,
   0x18, 0x00, 0x00, 0x00, 0x00, 0x00, 0x00, 0x00, 0x00, 0x00, 0x00, 0x00,
   0x00, 0x00, 0x38, 0x00, 0x03, 0x00, 0x00, 0x00, 0x00, 0x00, 0x00, 0x1c,
   0x80, 0x03, 0x00, 0x70, 0x00, 0x00, 0x00, 0x00, 0x00, 0xc0, 0x01, 0x38,
   0x00, 0x00, 0x00, 0x00, 0x00, 0x00, 0x00, 0x00, 0x00, 0x00, 0x00, 0x00,
   0x00, 0x18, 0x00, 0x07, 0x00, 0x00, 0x00, 0x00, 0x00, 0x00, 0x0c, 0x00,
   0x03, 0x00, 0xe0, 0x00, 0x00, 0x00, 0x00, 0x00, 0x80, 0x01, 0x38, 0x00,
   0x00, 0x00, 0x00, 0x00, 0x00, 0x00, 0x00, 0x00, 0x00, 0x00, 0x00, 0x00,
   0x38, 0x00, 0x06, 0x00, 0x00, 0x00, 0x00, 0x00, 0x00, 0x0e, 0x80, 0x03,
   0x00, 0xc0, 0x01, 0x00, 0x00, 0x00, 0x00, 0xc0, 0x01, 0x38, 0x00, 0x00,
   0x00, 0x00, 0x00, 0x00, 0x00, 0x00, 0x00, 0x00, 0x00, 0x00, 0x00, 0x18,
   0x00, 0x0e, 0x00, 0x00, 0x00, 0x00, 0x00, 0x00, 0x06, 0x80, 0x03, 0x00,
   0xc0, 0x01, 0x00, 0x00, 0x00, 0x00, 0x80, 0x01, 0x18, 0x00, 0x00, 0x00,
   0x00, 0x00, 0x00, 0x00, 0x00, 0x00, 0x00, 0x00, 0x00, 0x00, 0x38, 0x00,
   0x0c, 0x00, 0x00, 0x00, 0x00, 0x00, 0x00, 0x07, 0x80, 0x03, 0x00, 0x80,
   0x03, 0x00, 0x00, 0x00, 0x00, 0xc0, 0x01, 0x38, 0x00, 0x00, 0x00, 0x00,
   0x00, 0x00, 0x00, 0x00, 0x00, 0x00, 0x00, 0x00, 0x00, 0x18, 0x00, 0x1c,
   0x00, 0x00, 0x00, 0x00, 0x00, 0x00, 0x07, 0x80, 0x03, 0x00, 0x00, 0x07,
   0x00, 0x00, 0x00, 0x00, 0x80, 0x01, 0x18, 0x00, 0x00, 0x00, 0x00, 0x00,
   0x00, 0x00, 0x00, 0x00, 0x00, 0x00, 0x00, 0x00, 0x38, 0x00, 0x1c, 0x00,
   0x00, 0x00, 0x00, 0x00, 0x00, 0x03, 0x80, 0x03, 0x00, 0x00, 0x07, 0x00,
   0x00, 0x00, 0x00, 0xc0, 0x01, 0x38, 0x00, 0x00, 0x00, 0x00, 0x00, 0x00,
   0x00, 0x00, 0x00, 0x00, 0x00, 0x00, 0x00, 0x18, 0x00, 0x18, 0x00, 0x00,
   0x00, 0x00, 0x00, 0x80, 0x03, 0x00, 0x03, 0x00, 0x00, 0x0e, 0x00, 0x00,
   0x00, 0x00, 0x80, 0x01, 0x38, 0x00, 0x00, 0x00, 0x00, 0x00, 0x00, 0x00,
   0x00, 0x00, 0x00, 0x00, 0x00, 0x00, 0x38, 0x00, 0x38, 0x00, 0x00, 0x00,
   0x00, 0x00, 0x80, 0x01, 0x80, 0x03, 0x00, 0x00, 0x1c, 0x00, 0x00, 0x00,
   0x00, 0xc0, 0x01, 0x38, 0x00, 0x00, 0x00, 0x00, 0x00, 0x00, 0x00, 0x00,
   0x00, 0x00, 0x00, 0x00, 0x00, 0x18, 0x00, 0x30, 0x00, 0x00, 0x00, 0x00,
   0x00, 0xc0, 0x01, 0x80, 0x03, 0x00, 0x00, 0x1c, 0x00, 0x00, 0x00, 0x00,
   0x80, 0x01, 0x18, 0x00, 0x00, 0x00, 0x00, 0x00, 0x00, 0x00, 0x00, 0x00,
   0x00, 0x00, 0x00, 0x00, 0x38, 0x00, 0x70, 0x00, 0x00, 0x00, 0x00, 0x00,
   0xc0, 0x01, 0x80, 0x03, 0x00, 0x00, 0x38, 0x00, 0x00, 0x00, 0x00, 0xc0,
   0x01, 0x38, 0x00, 0x00, 0x00, 0x00, 0x00, 0x00, 0x00, 0x00, 0x00, 0x00,
   0x00, 0x00, 0x00, 0x18, 0x00, 0x70, 0x00, 0x00, 0x00, 0x00, 0x00, 0xc0,
   0x00, 0x80, 0x03, 0x00, 0x00, 0x70, 0x00, 0x00, 0x00, 0x00, 0x80, 0x01,
   0x18, 0x00, 0x00, 0x00, 0x00, 0x00, 0x00, 0x00, 0x00, 0x00, 0x00, 0x00,
   0x00, 0x00, 0x38, 0x00, 0x60, 0x00, 0x00, 0x00, 0x00, 0x00, 0xe0, 0x00,
   0x80, 0x03, 0x00, 0x00, 0x60, 0x00, 0x00, 0x00, 0x00, 0xc0, 0x01, 0x38,
   0x00, 0x00, 0x00, 0x00, 0x00, 0x00, 0x00, 0x00, 0x00, 0x00, 0x00, 0x00,
   0x00, 0x18, 0x00, 0xe0, 0x00, 0x00, 0x00, 0x00, 0x00, 0x60, 0x00, 0x00,
   0x03, 0x00, 0x00, 0xe0, 0x00, 0x00, 0x00, 0x00, 0x80, 0x01, 0x38, 0x00,
   0x00, 0x00, 0x00, 0x00, 0x00, 0x00, 0x00, 0x00, 0x00, 0x00, 0x00, 0x00,
   0x38, 0x00, 0xc0, 0x00, 0x00, 0x00, 0x00, 0x00, 0x70, 0x00, 0x80, 0x03,
   0x00, 0x00, 0xc0, 0x01, 0x00, 0x00, 0x00, 0xc0, 0x01, 0x38, 0x00, 0x00,
   0x00, 0x00, 0x00, 0x00, 0x00, 0x00, 0x00, 0x00, 0x00, 0x00, 0x00, 0x18,
   0x00, 0xc0, 0x01, 0x00, 0x00, 0x00, 0x00, 0x30, 0x00, 0x80, 0x03, 0x00,
   0x00, 0x80, 0x03, 0x00, 0x00, 0x00, 0x80, 0x01, 0x18, 0x00, 0x00, 0x00,
   0x00, 0x00, 0x00, 0x00, 0x00, 0x00, 0x00, 0x00, 0x00, 0x00, 0x38, 0x00,
   0x80, 0x01, 0x00, 0x00, 0x00, 0x00, 0x38, 0x00, 0x80, 0x03, 0x00, 0x00,
   0x80, 0x03, 0x00, 0x00, 0x00, 0xc0, 0x01, 0x38, 0x00, 0x00, 0x00, 0x00,
   0x00, 0x00, 0x00, 0x00, 0x00, 0x00, 0x00, 0x00, 0x00, 0x18, 0x00, 0x80,
   0x03, 0x00, 0x00, 0x00, 0x00, 0x38, 0x00, 0x80, 0x03, 0x00, 0x00, 0x00,
   0x07, 0x00, 0x00, 0x00, 0x80, 0x01, 0x18, 0x00, 0x00, 0x00, 0x00, 0x00,
   0x00, 0x00, 0x00, 0x00, 0x00, 0x00, 0x00, 0x00, 0x38, 0x00, 0x80, 0x03,
   0x00, 0x00, 0x00, 0x00, 0x18, 0x00, 0x80, 0x03, 0x00, 0x00, 0x00, 0x0e,
   0x00, 0x00, 0x00, 0xc0, 0x01, 0x38, 0x00, 0x00, 0x00, 0x00, 0x00, 0x00,
   0x00, 0x00, 0x00, 0x00, 0x00, 0x00, 0x00, 0x18, 0x00, 0x00, 0xff, 0xff,
   0xff, 0xff, 0xff, 0x1f, 0x00, 0x00, 0x03, 0x00, 0x00, 0x00, 0x0e, 0x00,
   0x00, 0x00, 0x80, 0x01, 0x38, 0x00, 0x00, 0x00, 0x00, 0x00, 0x00, 0xe0,
   0xff, 0xff, 0xff, 0xff, 0xff, 0xff, 0x3f, 0x00, 0x00, 0xff, 0xff, 0xff,
   0xff, 0xff, 0x0f, 0x00, 0x80, 0x03, 0x00, 0x00, 0x00, 0x1c, 0x00, 0x00,
   0x00, 0xc0, 0x01, 0x38, 0x00, 0x00, 0x00, 0x00, 0x00, 0x00, 0xe0, 0xff,
   0xff, 0xff, 0xff, 0xff, 0xff, 0x1f, 0x00, 0x00, 0xae, 0xaa, 0xaa, 0xaa,
   0xaa, 0x0e, 0x00, 0x80, 0x03, 0x00, 0x00, 0x00, 0x38, 0x00, 0x00, 0x00,
   0x80, 0x01, 0x18, 0x00, 0x00, 0x00, 0x00, 0x00, 0x00, 0x00, 0x84, 0x40,
   0x08, 0x84, 0x40, 0x08, 0x38, 0x00, 0x00, 0x06, 0x00, 0x00, 0x00, 0x00,
   0x06, 0x00, 0x80, 0x03, 0x00, 0x00, 0x00, 0x38, 0x00, 0x00, 0x00, 0xc0,
   0x01, 0x38, 0x00, 0x00, 0x00, 0x00, 0x00, 0x00, 0x00, 0x00, 0x00, 0x00,
   0x00, 0x00, 0x00, 0x18, 0x00, 0x00, 0x0e, 0x00, 0x00, 0x00, 0x00, 0x07,
   0x00, 0x80, 0x03, 0x00, 0x00, 0x00, 0x70, 0x00, 0x00, 0x00, 0x80, 0x01,
   0x18, 0x00, 0x00, 0x00, 0x00, 0x00, 0x00, 0x00, 0x00, 0x00, 0x00, 0x00,
   0x00, 0x00, 0x38, 0x00, 0x00, 0x1c, 0x00, 0x00, 0x00, 0x00, 0x07, 0x00,
   0x80, 0x03, 0x00, 0x00, 0x00, 0xe0, 0x00, 0x00, 0x00, 0xc0, 0x01, 0x38,
   0x00, 0x00, 0x00, 0x00, 0x00, 0x00, 0x00, 0x00, 0x00, 0x00, 0x00, 0x00,
   0x00, 0x18, 0x00, 0x00, 0x1c, 0x00, 0x00, 0x00, 0x00, 0x03, 0x00, 0x00,
   0x03, 0x00, 0x00, 0x00, 0xc0, 0x01, 0x00, 0x00, 0x80, 0x01, 0x38, 0x00,
   0x00, 0x00, 0x00, 0x00, 0x00, 0x00, 0x00, 0x00, 0x00, 0x00, 0x00, 0x00,
   0x38, 0x00, 0x00, 0x18, 0x00, 0x00, 0x00, 0x80, 0x03, 0x00, 0x80, 0x03,
   0x00, 0x00, 0x00, 0xc0, 0x01, 0x00, 0x00, 0xc0, 0x01, 0x38, 0x00, 0x00,
   0x00, 0x00, 0x00, 0x00, 0x00, 0x00, 0x00, 0x00, 0x00, 0x00, 0x00, 0x18,
   0x00, 0x00, 0x38, 0x00, 0x00, 0x00, 0x80, 0x01, 0x00, 0x80, 0x03, 0x00,
   0x00, 0x00, 0x80, 0x03, 0x00, 0x00, 0x80, 0x01, 0x18, 0x00, 0x00, 0x00,
   0x00, 0x00, 0x00, 0x00, 0x00, 0x00, 0x00, 0x00, 0x00, 0x00, 0x38, 0x00,
   0x00, 0x30, 0x00, 0x00, 0x00, 0xc0, 0x01, 0x00, 0x80, 0x03, 0x00, 0x00,
   0x00, 0x80, 0x07, 0x00, 0x00, 0xc0, 0x01, 0x38, 0x00, 0x00, 0x00, 0x00,
   0x00, 0x00, 0x00, 0x00, 0x00, 0x00, 0x00, 0x00, 0x00, 0x18, 0x00, 0x00,
   0x70, 0x00, 0x00, 0x00, 0xc0, 0x01, 0x00, 0x80, 0x03, 0x00, 0x00, 0x00,
   0x00, 0x07, 0x00, 0x00, 0x80, 0x01, 0x18, 0x00, 0x00, 0x00, 0x00, 0x00,
   0x00, 0x00, 0x00, 0x00, 0x00, 0x00, 0x00, 0x00, 0x38, 0x00, 0x00, 0x70,
   0x00, 0x00, 0x00, 0xc0, 0x00, 0x00, 0x80, 0x03, 0x00, 0x00, 0x00, 0x00,
   0x0e, 0x00, 0x00, 0xc0, 0x01, 0x38, 0x00, 0x00, 0x00, 0x00, 0x00, 0x00,
   0x00, 0x00, 0x00, 0x00, 0x00, 0x00, 0x00, 0x18, 0x00, 0x00, 0x60, 0x00,
   0x00, 0x00, 0xe0, 0x00, 0x00, 0x00, 0x03, 0x00, 0x00, 0x00, 0x00, 0x1c,
   0x00, 0x00, 0x80, 0x01, 0x38, 0x00, 0x00, 0x00, 0x00, 0x00, 0x00, 0x00,
   0x00, 0x00, 0x00, 0x00, 0x00, 0x00, 0x38, 0x00, 0x00, 0xe0, 0x00, 0x00,
   0x00, 0x60, 0x00, 0x00, 0x80, 0x03, 0x00, 0x00, 0x00, 0x00, 0x1c, 0x00,
   0x00, 0xc0, 0x01, 0x38, 0x00, 0x00, 0x00, 0x00, 0x00, 0x00, 0x00, 0x00,
   0x00, 0x00, 0x00, 0x00, 0x00, 0x18, 0x00, 0x00, 0xc0, 0x00, 0x00, 0x00,
   0x70, 0x00, 0x00, 0x80, 0x03, 0x00, 0x00, 0x00, 0x00, 0x38, 0x00, 0x00,
   0x80, 0x01, 0x18, 0x00, 0x00, 0x00, 0x00, 0x00, 0x00, 0x00, 0x00, 0x00,
   0x00, 0x00, 0x00, 0x00, 0x38, 0x00, 0x00, 0xc0, 0x01, 0x00, 0x00, 0x30,
   0x00, 0x00, 0x80, 0x03, 0x00, 0x00, 0x00, 0x00, 0x70, 0x00, 0x00, 0xc0,
   0x01, 0x38, 0x00, 0x00, 0x00, 0x00, 0x00, 0x00, 0x00, 0x00, 0x00, 0x00,
   0x00, 0x00, 0x00, 0x18, 0x00, 0x00, 0xc0, 0x01, 0x00, 0x00, 0x38, 0x00,
   0x00, 0x80, 0x03, 0x00, 0x00, 0x00, 0x00, 0x70, 0x00, 0x00, 0x80, 0x01,
   0x18, 0x00, 0x00, 0x00, 0x00, 0x00, 0x00, 0x00, 0x00, 0x00, 0x00, 0x00,
   0x00, 0x00, 0x38, 0x00, 0x00, 0x80, 0x03, 0x00, 0x00, 0x38, 0x00, 0x00,
   0x80, 0x03, 0x00, 0x00, 0x00, 0x00, 0xe0, 0x00, 0x00, 0xc0, 0x01, 0x38,
   0x00, 0x00, 0x00, 0x00, 0x00, 0x00, 0x00, 0x00, 0x00, 0x00, 0x00, 0x00,
   0x00, 0x18, 0x00, 0x00, 0x80, 0x03, 0x00, 0x00, 0x18, 0x00, 0x00, 0x00,
   0x03, 0x00, 0x00, 0x00, 0x00, 0xc0, 0x01, 0x00, 0x80, 0x01, 0x38, 0x00,
   0x00, 0x00, 0x00, 0x00, 0x00, 0x00, 0x00, 0x00, 0x00, 0x00, 0x00, 0x00,
   0x38, 0x00, 0x00, 0x00, 0x03, 0x00, 0x00, 0x1c, 0x00, 0x00, 0x80, 0x03,
   0x00, 0x00, 0x00, 0x00, 0xc0, 0x03, 0x00, 0xc0, 0x01, 0x38, 0x00, 0x00,
   0x00, 0x00, 0x00, 0x00, 0x00, 0x00, 0x00, 0x00, 0x00, 0x00, 0x00, 0x18,
   0x00, 0x00, 0x00, 0x07, 0x00, 0x00, 0x0c, 0x00, 0x00, 0x80, 0x03, 0x00,
   0x00, 0x00, 0x00, 0x80, 0x03, 0x00, 0x80, 0x01, 0x18, 0x00, 0x00, 0x00,
   0x00, 0x00, 0x00, 0x00, 0x00, 0x00, 0x00, 0x00, 0x00, 0x00, 0x38, 0x00,
   0x00, 0x00, 0x06, 0x00, 0x00, 0x0e, 0x00, 0x00, 0x80, 0x03, 0x00, 0x00,
   0x00, 0x00, 0x00, 0x07, 0x00, 0xc0, 0x01, 0x38, 0x00, 0x00, 0x00, 0x00,
   0x00, 0x00, 0x00, 0x00, 0x00, 0x00, 0x00, 0x00, 0x00, 0x18, 0x00, 0x00,
   0x00, 0x0e, 0x00, 0x00, 0x06, 0x00, 0x00, 0x80, 0x03, 0x00, 0x00, 0x00,
   0x00, 0x00, 0x0e, 0x00, 0x80, 0x01, 0x18, 0x00, 0x00, 0x00, 0x00, 0x00,
   0x00, 0x00, 0x00, 0x00, 0x00, 0x00, 0x00, 0x00, 0x38, 0x00, 0x00, 0x00,
   0x0e, 0x00, 0x00, 0x07, 0x00, 0x00, 0x80, 0x03, 0x00, 0x00, 0x00, 0x00,
   0x00, 0x0e, 0x00, 0xc0, 0x01, 0x38, 0x00, 0x00, 0x00, 0x00, 0x00, 0x00,
   0x00, 0x00, 0x00, 0x00, 0x00, 0x00, 0x00, 0x18, 0x00, 0x00, 0x00, 0x0c,
   0x00, 0x00, 0x07, 0x00, 0x00, 0x00, 0x03, 0x00, 0x00, 0x00, 0x00, 0x00,
   0x1c, 0x00, 0x80, 0x01, 0x38, 0x00, 0x00, 0x00, 0x00, 0x00, 0x00, 0x00,
   0x00, 0x00, 0x00, 0x00, 0x00, 0x00, 0x38, 0x00, 0x00, 0x00, 0x1c, 0x00,
   0x00, 0x03, 0x00, 0x00, 0x80, 0x03, 0x00, 0x00, 0x00, 0x00, 0x00, 0x38,
   0x00, 0xc0, 0x01, 0x38, 0x00, 0x00, 0x00, 0x00, 0x00, 0x00, 0x00, 0x00,
   0x00, 0x00, 0x00, 0x00, 0x00, 0x18, 0x00, 0x00, 0x00, 0x18, 0x00, 0x80,
   0x03, 0x00, 0x00, 0x80, 0x03, 0x00, 0x00, 0x00, 0x00, 0x00, 0x38, 0x00,
   0x80, 0x01, 0x18, 0x00, 0x00, 0x00, 0x00, 0x00, 0x00, 0x00, 0x00, 0x00,
   0x00, 0x00, 0x00, 0x00, 0x38, 0x00, 0x00, 0x00, 0x38, 0x00, 0x80, 0x03,
   0x00, 0x00, 0x80, 0x03, 0x00, 0x00, 0x00, 0x00, 0x00, 0x70, 0x00, 0xc0,
   0x01, 0x38, 0x00, 0x00, 0x00, 0x00, 0x00, 0x00, 0x00, 0x00, 0x00, 0x00,
   0x00, 0x00, 0x00, 0x18, 0x00, 0x00, 0x00, 0x30, 0x00, 0xc0, 0x01, 0x00,
   0x00, 0x80, 0x03, 0x00, 0x00, 0x00, 0x00, 0x00, 0xe0, 0x00, 0x80, 0x01,
   0x18, 0x00, 0x00, 0x00, 0x00, 0x00, 0x00, 0x00, 0x00, 0x00, 0x00, 0x00,
   0x00, 0x00, 0x38, 0x00, 0x00, 0x00, 0x70, 0x00, 0xc0, 0x01, 0x00, 0x00,
   0x80, 0x03, 0x00, 0x00, 0x00, 0x00, 0x00, 0xe0, 0x00, 0xc0, 0x01, 0x38,
   0x00, 0x00, 0x00, 0x00, 0x00, 0x00, 0x00, 0x00, 0x00, 0x00, 0x00, 0x00,
   0x00, 0x18, 0x00, 0x00, 0x00, 0x70, 0x00, 0xc0, 0x00, 0x00, 0x00, 0x00,
   0x03, 0x00, 0x00, 0x00, 0x00, 0x00, 0xc0, 0x01, 0x80, 0x01, 0x38, 0x00,
   0x00, 0x00, 0x00, 0x00, 0x00, 0x00, 0x00, 0x00, 0x00, 0x00, 0x00, 0x00,
   0x38, 0x00, 0x00, 0x00, 0x60, 0x00, 0xe0, 0x00, 0x00, 0x00, 0x80, 0x03,
   0x00, 0x00, 0x00, 0x00, 0x00, 0x80, 0x03, 0xc0, 0x01, 0x38, 0x00, 0x00,
   0x00, 0x00, 0x00, 0x00, 0x00, 0x00, 0x00, 0x00, 0x00, 0x00, 0x00, 0x18,
   0x00, 0x00, 0x00, 0xe0, 0x00, 0x60, 0x00, 0x00, 0x00, 0x80, 0x03, 0x00,
   0x00, 0x00, 0x00, 0x00, 0x00, 0x07, 0x80, 0x01, 0x18, 0x00, 0x00, 0x00,
   0x00, 0x00, 0x00, 0x00, 0x00, 0x00, 0x00, 0x00, 0x00, 0x00, 0x38, 0x00,
   0x00, 0x00, 0xc0, 0x00, 0x70, 0x00, 0x00, 0x00, 0x80, 0x03, 0x00, 0x00,
   0x00, 0x00, 0x00, 0x00, 0x07, 0xc0, 0x01, 0x38, 0x00, 0x00, 0x00, 0x00,
   0x00, 0x00, 0x00, 0x00, 0x00, 0x00, 0x00, 0x00, 0x00, 0x18, 0x00, 0x00,
   0x00, 0xc0, 0x01, 0x70, 0x00, 0x00, 0x00, 0x80, 0x03, 0x00, 0x00, 0x00,
   0x00, 0x00, 0x00, 0x0e, 0x80, 0x01, 0x18, 0x00, 0x00, 0x00, 0x00, 0x00,
   0x00, 0x00, 0x00, 0x00, 0x00, 0x00, 0x00, 0x00, 0x38, 0x00, 0x00, 0x00,
   0x80, 0x01, 0x38, 0x00, 0x00, 0x00, 0x80, 0x03, 0x00, 0x00, 0x00, 0x00,
   0x00, 0x00, 0x1c, 0xc0, 0x01, 0x38, 0x00, 0x00, 0x00, 0x00, 0x00, 0x00,
   0x00, 0x00, 0x00, 0x00, 0x00, 0x00, 0x00, 0x18, 0x00, 0x00, 0x00, 0x80,
   0x03, 0x38, 0x00, 0x00, 0x00, 0x00, 0x03, 0x00, 0x00, 0x00, 0x00, 0x00,
   0x00, 0x1c, 0x80, 0x01, 0x38, 0x00, 0x00, 0x00, 0x00, 0x00, 0x00, 0x00,
   0x00, 0x00, 0x00, 0x00, 0x00, 0x00, 0x38, 0x00, 0x00, 0x00, 0x80, 0x03,
   0x18, 0x00, 0x00, 0x00, 0x80, 0x03, 0x00, 0x00, 0x00, 0x00, 0x00, 0x00,
   0x38, 0xc0, 0x01, 0x38, 0x00, 0x00, 0x00, 0x00, 0x00, 0x00, 0x00, 0x00,
   0x00, 0x00, 0x00, 0x00, 0x00, 0x18, 0x00, 0x00, 0x00, 0x00, 0x03, 0x1c,
   0x00, 0x00, 0x00, 0x80, 0x03, 0x00, 0x00, 0x00, 0x00, 0x00, 0x00, 0x70,
   0x80, 0x01, 0x18, 0x00, 0x00, 0x00, 0x00, 0x00, 0x00, 0x00, 0x00, 0x00,
   0x00, 0x00, 0x00, 0x00, 0x38, 0x00, 0x00, 0x00, 0x00, 0x07, 0x0c, 0x00,
   0x00, 0x00, 0x80, 0x03, 0x00, 0x00, 0x00, 0x00, 0x00, 0x00, 0x70, 0xc0,
   0x01, 0x38, 0x00, 0x00, 0x00, 0x00, 0x00, 0x00, 0x00, 0x00, 0x00, 0x00,
   0x00, 0x00, 0x00, 0x18, 0x00, 0x00, 0x00, 0x00, 0x06, 0x0e, 0x00, 0x00,
   0x00, 0x80, 0x03, 0x00, 0x00, 0x00, 0x00, 0x00, 0x00, 0xe0, 0x80, 0x01,
   0x18, 0x00, 0x00, 0x00, 0x00, 0x00, 0x00, 0x00, 0x00, 0x00, 0x00, 0x00,
   0x00, 0x00, 0x38, 0x00, 0x00, 0x00, 0x00, 0x0e, 0x06, 0x00, 0x00, 0x00,
   0x80, 0x03, 0x00, 0x00, 0x00, 0x00, 0x00, 0x00, 0xc0, 0xc1, 0x01, 0x38,
   0x00, 0x00, 0x00, 0x00, 0x00, 0x00, 0x00, 0x00, 0x00, 0x00, 0x00, 0x00,
   0x00, 0x18, 0x00, 0x00, 0x00, 0x00, 0x0c, 0x06, 0x00, 0x00, 0x00, 0x00,
   0x03, 0x00, 0x00, 0x00, 0x00, 0x00, 0x00, 0xc0, 0x81, 0x01, 0x38, 0x00,
   0x00, 0x00, 0x00, 0x00, 0x00, 0x00, 0x00, 0x00, 0x00, 0x00, 0x00, 0x00,
   0x38, 0x00, 0x00, 0x00, 0x00, 0x0c, 0x07, 0x00, 0x00, 0x00, 0x80, 0x03,
   0x00, 0x00, 0x00, 0x00, 0x00, 0x00, 0x80, 0xc3, 0x01, 0x38, 0x00, 0x00,
   0x00, 0x00, 0x00, 0x00, 0x00, 0x00, 0x00, 0x00, 0x00, 0x00, 0x00, 0x18,
   0x00, 0x00, 0x00, 0x00, 0x1c, 0x03, 0x00, 0x00, 0x00, 0x80, 0x03, 0x00,
   0x00, 0x00, 0x00, 0x00, 0x00, 0x00, 0x87, 0x01, 0x18, 0x00, 0x00, 0x00,
   0x00, 0x00, 0x00, 0x00, 0x00, 0x00, 0x00, 0x00, 0x00, 0x00, 0x38, 0x00,
   0x00, 0x00, 0x00, 0x98, 0x03, 0x00, 0x00, 0x00, 0x80, 0x03, 0x00, 0x00,
   0x00, 0x00, 0x00, 0x00, 0x00, 0xc7, 0x01, 0x38, 0x00, 0x00, 0x00, 0x00,
   0x00, 0x00, 0x00, 0x00, 0x00, 0x00, 0x00, 0x00, 0x00, 0x18, 0x00, 0x00,
   0x00, 0x00, 0xb8, 0x01, 0x00, 0x00, 0x00, 0x80, 0x03, 0x00, 0x00, 0x00,
   0x00, 0x00, 0x00, 0x00, 0x8e, 0x01, 0x18, 0x00, 0x00, 0x00, 0x00, 0x00,
   0x00, 0x00, 0x00, 0x00, 0x00, 0x00, 0x00, 0x00, 0x38, 0x00, 0x00, 0x00,
   0x00, 0xf0, 0x01, 0x00, 0x00, 0x00, 0x80, 0x03, 0x00, 0x00, 0x00, 0x00,
   0x00, 0x00, 0x00, 0xdc, 0x01, 0x38, 0x00, 0x00, 0x00, 0x00, 0x00, 0x00,
   0x00, 0x00, 0x00, 0x00, 0x00, 0x00, 0x00, 0x18, 0x00, 0x00, 0x00, 0x00,
   0xf0, 0x01, 0x00, 0x00, 0x00, 0x00, 0x03, 0x00, 0x00, 0x00, 0x00, 0x00,
   0x00, 0x00, 0xb8, 0x01, 0x38, 0x00, 0x00, 0x00, 0x00, 0x00, 0x00, 0x00,
   0x00, 0x00, 0x00, 0x00, 0x00, 0x00, 0x38, 0x00, 0x00, 0x00, 0x00, 0xf0,
   0x00, 0x00, 0x00, 0x00, 0x80, 0x03, 0x00, 0x00, 0x00, 0x00, 0x00, 0x00,
   0x00, 0xf8, 0x01, 0x38, 0x00, 0x00, 0x00, 0x00, 0x00, 0x00, 0x00, 0x00,
   0x00, 0x00, 0x00, 0x00, 0x00, 0x18, 0x00, 0x00, 0x00, 0x00, 0xe0, 0x00,
   0x00, 0x00, 0x00, 0x80, 0x03, 0x00, 0x00, 0x00, 0x00, 0x00, 0x00, 0x00,
   0xf0, 0x01, 0x38, 0x55, 0x55, 0x55, 0x55, 0x55, 0x55, 0x15, 0x11, 0x11,
   0x11, 0x11, 0x11, 0x11, 0x39, 0x00, 0x00, 0x00, 0x00, 0x60, 0x00, 0x00,
   0x00, 0x00, 0x80, 0x03, 0x00, 0x00, 0x00, 0x00, 0x00, 0x00, 0x00, 0xe0,
   0x01, 0xf8, 0xff, 0xff, 0xff, 0xff, 0xff, 0xff, 0xff, 0xff, 0xff, 0xff,
   0xff, 0xff, 0xff, 0x1f, 0x00, 0x00, 0x00, 0x00, 0x40, 0x00, 0x00, 0x00,
   0x00, 0x80, 0x03, 0x00, 0x00, 0x00, 0x00, 0x00, 0x00, 0x00, 0xe0, 0x01,
   0xf8, 0xff, 0xff, 0xff, 0xff, 0xff, 0xff, 0xff, 0xff, 0xff, 0xff, 0xff,
   0xff, 0xff, 0x3f, 0x00, 0x00, 0x00, 0x00, 0x40, 0x00, 0x00, 0x00, 0x00,
   0x80, 0x03, 0x00, 0x00, 0x00, 0x00, 0x00, 0x00, 0x00, 0xc0, 0x01, 0x00,
   0x00, 0x00, 0x00, 0x00, 0x00, 0x00, 0x00, 0x00, 0x00, 0x00, 0x00, 0x00,
   0x00, 0x00, 0x00, 0x00, 0x00, 0x00, 0x00, 0x00, 0x00, 0x00, 0x00, 0x00,
   0x00, 0x00, 0x00, 0x00, 0x00, 0x00, 0x00, 0x00, 0x00, 0x00, 0x00, 0x00,
   0x00, 0x00, 0x00, 0x00, 0x00, 0x00, 0x00, 0x00, 0x00, 0x00, 0x00, 0x00,
   0x00, 0x00, 0x00, 0x00, 0x00, 0x00, 0x00, 0x00, 0x00, 0x00, 0x00, 0x00,
   0x00, 0x00, 0x00, 0x00, 0x00, 0x00, 0x00, 0x00, 0x00, 0x00, 0x00, 0x00,
   0x00, 0x00, 0x00, 0x00, 0x00, 0x00, 0x00, 0x00, 0x00, 0x00, 0x00, 0x00,
   0x00, 0x00, 0x00, 0x00, 0x00, 0x00, 0x00, 0x00, 0x00, 0x00, 0x00, 0x00,
   0x00, 0x00, 0x00, 0x00, 0x00, 0x00, 0x00, 0x00, 0x00, 0x00, 0x00, 0x00,
   0x00, 0x00, 0x00, 0x00, 0x00, 0x00, 0x00, 0x00, 0x00, 0x00, 0x00, 0x00,
   0x00, 0x00, 0x00, 0x00, 0x00, 0x00, 0x00, 0x00, 0x00, 0x00, 0x00, 0x00,
   0x00, 0x00, 0x00, 0x00, 0x00, 0x00, 0x00, 0x00, 0x00, 0x00, 0x00, 0x00,
   0x00, 0x00, 0x00, 0x00, 0x00, 0x00, 0x00, 0x00, 0x00, 0x00, 0x00, 0x00,
   0x00, 0x00, 0x00, 0x00, 0x00, 0x00, 0x00, 0x00, 0x00, 0x00, 0x00, 0x00,
   0x00, 0x00, 0x00, 0x00, 0x00, 0x00, 0x00, 0x00, 0x00, 0x00, 0x00, 0x00,
   0x00, 0x00, 0x00, 0x00, 0x00, 0x00, 0x00, 0x00, 0x00, 0x00, 0x00, 0x00,
   0x00, 0x00, 0x00, 0x00, 0x00, 0x00, 0x00, 0x00, 0x00, 0x00, 0x00, 0x00,
   0x00, 0x00, 0x00, 0x00, 0x00, 0x00, 0x00, 0x00, 0x00, 0x00, 0x00, 0x00,
   0x00, 0x00, 0x00, 0x00, 0x00, 0x00, 0x00, 0x00, 0x00, 0x00, 0x00, 0x00,
   0x00, 0x00, 0x00, 0x00, 0x00, 0x00, 0x00, 0x00, 0x00, 0x00, 0x00, 0x00,
   0x00, 0x00, 0x00, 0x00, 0x00, 0x00, 0x00, 0x00, 0x00, 0x00, 0x00, 0x00,
   0xe0, 0x01, 0x00, 0x00, 0x00, 0x00, 0x00, 0x00, 0x00, 0x00, 0x00, 0x00,
   0x00, 0x00, 0x00, 0x00, 0x00, 0xf0, 0x00, 0x00, 0x00, 0x00, 0x00, 0x00,
   0x00, 0x00, 0x00, 0xf0, 0xff, 0x9f, 0x00, 0x80, 0xe8, 0xee, 0x00, 0x0c,
   0x0c, 0xc0, 0xdf, 0x03, 0x77, 0x37, 0x02, 0x00, 0x20, 0x00, 0x40, 0xdf,
   0x03, 0x7d, 0x0f, 0x00, 0x06, 0x06, 0x08, 0x00, 0x40, 0xba, 0x3b, 0xfa,
   0x1e, 0x00, 0x00, 0x10, 0x80, 0x00, 0x80, 0x08, 0x00, 0x00, 0x03, 0x30,
   0x00, 0x00, 0x0c, 0x00, 0x00, 0x02, 0x00, 0x50, 0x00, 0x40, 0x00, 0x04,
   0x01, 0x10, 0x80, 0x01, 0x18, 0x08, 0x00, 0x40, 0x01, 0x00, 0x02, 0x20,
   0x00, 0x00, 0x10, 0x80, 0x00, 0x80, 0x08, 0x00, 0x80, 0x00, 0x40, 0x20,
   0x00, 0x10, 0x01, 0x00, 0x04, 0x00, 0x08, 0x00, 0x00, 0x00, 0x08, 0x00,
   0x20, 0x40, 0x00, 0x20, 0x08, 0x00, 0x20, 0x01, 0x00, 0x00, 0x40, 0x00,
   0x00, 0x10, 0x80, 0x00, 0x80, 0x08, 0x00, 0x40, 0x00, 0x80, 0x40, 0x00,
   0x10, 0x01, 0x00, 0x0a, 0x00, 0x48, 0x00, 0x60, 0x00, 0x10, 0x01, 0x40,
   0x20, 0x00, 0x40, 0x10, 0x00, 0x20, 0x02, 0x00, 0x02, 0x80, 0x00, 0x00,
   0x10, 0x80, 0x00, 0x80, 0x08, 0x00, 0x20, 0x00, 0x00, 0x01, 0x00, 0x20,
   0x01, 0x00, 0x10, 0x00, 0x04, 0x00, 0x00, 0x00, 0x10, 0x00, 0x40, 0x10,
   0x00, 0x80, 0x10, 0x00, 0x10, 0x00, 0x00, 0x00, 0x80, 0x00, 0x00, 0x10,
   0x80, 0x00, 0x80, 0x08, 0x00, 0x10, 0x00, 0x00, 0x42, 0x00, 0x20, 0x00,
   0x00, 0x02, 0x00, 0x20, 0x00, 0x40, 0x00, 0x20, 0x01, 0x00, 0x08, 0x00,
   0x00, 0x21, 0x00, 0x10, 0x01, 0x00, 0x02, 0x00, 0x01, 0x00, 0x10, 0x80,
   0x00, 0x80, 0x08, 0x00, 0x10, 0x00, 0x00, 0x02, 0x00, 0x20, 0x01, 0x00,
   0x22, 0x00, 0x22, 0x00, 0x00, 0x00, 0x20, 0x00, 0x80, 0x04, 0x00, 0x00,
   0x21, 0x00, 0x08, 0x02, 0x00, 0x00, 0x00, 0x01, 0x00, 0x10, 0x80, 0x00,
   0x80, 0x08, 0x00, 0x08, 0x00, 0x00, 0x44, 0x00, 0x00, 0x01, 0x00, 0x40,
   0x00, 0x01, 0x00, 0x60, 0x00, 0x20, 0x01, 0x80, 0x00, 0x00, 0x00, 0x42,
   0x00, 0x08, 0x02, 0x00, 0x03, 0x00, 0x00, 0x00, 0x10, 0x80, 0x00, 0x80,
   0x08, 0x00, 0x08, 0x00, 0x00, 0x04, 0x00, 0x20, 0x01, 0x00, 0x42, 0x80,
   0x20, 0x00, 0x00, 0x00, 0x20, 0x00, 0x00, 0x04, 0x00, 0x00, 0x42, 0x00,
   0x00, 0x00, 0x00, 0x00, 0x00, 0x01, 0x00, 0x10, 0x80, 0x00, 0x80, 0x08,
   0x00, 0x00, 0x00, 0x00, 0x48, 0x00, 0x20, 0x01, 0x00, 0x82, 0x80, 0x40,
   0x00, 0x40, 0x00, 0x00, 0x01, 0x80, 0x04, 0x00, 0x00, 0x00, 0x00, 0x04,
   0x01, 0x00, 0x02, 0x80, 0x00, 0x00, 0x10, 0x80, 0x00, 0x80, 0x08, 0x00,
   0x04, 0x00, 0x00, 0x08, 0x00, 0x10, 0x01, 0x00, 0x00, 0x41, 0x00, 0x00,
   0x00, 0x00, 0x10, 0x00, 0x40, 0x02, 0x00, 0x00, 0x84, 0x00, 0x04, 0x01,
   0x00, 0x00, 0x80, 0x00, 0x00, 0x10, 0x80, 0xaa, 0xaa, 0x48, 0x92, 0x04,
   0x00, 0x00, 0x48, 0x00, 0x08, 0x92, 0x24, 0x02, 0x42, 0x40, 0x00, 0x60,
   0x00, 0x10, 0x01, 0x20, 0x00, 0x00, 0x00, 0x84, 0x00, 0x04, 0x92, 0x24,
   0x02, 0x40, 0x00, 0x00, 0x10, 0x80, 0x00, 0x80, 0x88, 0x24, 0x04, 0x00,
   0x00, 0x08, 0x00, 0x08, 0x25, 0x09, 0x00, 0x22, 0x00, 0x00, 0x00, 0x00,
   0x08, 0x00, 0x10, 0x02, 0x00, 0x00, 0x84, 0x00, 0x02, 0x26, 0x09, 0x00,
   0x20, 0x00, 0x00, 0x10, 0x80, 0x00, 0x80, 0x08, 0x00, 0x00, 0x00, 0x00,
   0x48, 0x54, 0x03, 0x00, 0x00, 0x02, 0x14, 0x40, 0x00, 0x40, 0x00, 0x06,
   0x51, 0x0d, 0x04, 0x00, 0x00, 0x04, 0x01, 0x02, 0x00, 0x00, 0xa1, 0x1a,
   0x00, 0x00, 0x10, 0x80, 0x00, 0x80, 0x08, 0x00, 0x08, 0x00, 0x00, 0x04,
   0x0c, 0x00, 0x01, 0x00, 0x00, 0x08, 0x00, 0x00, 0x40, 0xdb, 0x00, 0x10,
   0x00, 0x00, 0x00, 0x00, 0x00, 0x01, 0x01, 0x01, 0x00, 0x22, 0x00, 0x00,
   0x00, 0x10, 0x80, 0x00, 0x80, 0x08, 0x00, 0x08, 0x00, 0x00, 0x44, 0x10,
   0x00, 0x01, 0x00, 0x03, 0x00, 0x20, 0x00, 0x40, 0x00, 0x00, 0x21, 0x00,
   0x04, 0x00, 0x00, 0x02, 0x02, 0x01, 0x02, 0x00, 0x42, 0x00, 0x00, 0x00,
   0x10, 0x80, 0x00, 0x80, 0x08, 0x00, 0x08, 0x00, 0x00, 0x04, 0x20, 0x00,
   0x01, 0x00, 0x00, 0x00, 0x20, 0x00, 0x00, 0x00, 0x00, 0x40, 0x00, 0x04,
   0x00, 0x00, 0x02, 0x82, 0x00, 0x00, 0x00, 0x80, 0x00, 0x00, 0x00, 0x10,
   0x80, 0x00, 0x80, 0x08, 0x00, 0x10, 0x00, 0x00, 0x20, 0x40, 0x00, 0x00,
   0x00, 0x02, 0x00, 0x00, 0x00, 0x60, 0x00, 0x00, 0x81, 0x00, 0x08, 0x00,
   0x00, 0x01, 0x84, 0x00, 0x01, 0x00, 0x02, 0x01, 0x00, 0x00, 0x10, 0x80,
   0x00, 0x80, 0x08, 0x00, 0x10, 0x00, 0x00, 0x42, 0x80, 0x00, 0x01, 0x00,
   0x00, 0x00, 0x20, 0x00, 0x00, 0x00, 0x00, 0x00, 0x02, 0x08, 0x00, 0x00,
   0x01, 0x04, 0x00, 0x02, 0x00, 0x00, 0x04, 0x00, 0x00, 0x10, 0x80, 0x00,
   0x80, 0x08, 0x00, 0x20, 0x00, 0x00, 0x01, 0x00, 0x01, 0x01, 0x00, 0x02,
   0x00, 0x40, 0x00, 0x40, 0x00, 0x00, 0x01, 0x04, 0x10, 0x00, 0x80, 0x00,
   0x40, 0x00, 0x02, 0x00, 0x02, 0x04, 0x00, 0x00, 0x10, 0x80, 0x00, 0x80,
   0x08, 0x00, 0x40, 0x00, 0x80, 0x40, 0x00, 0x02, 0x01, 0x00, 0x00, 0x00,
   0x00, 0x00, 0x00, 0x00, 0x00, 0x00, 0x08, 0x20, 0x00, 0x40, 0x00, 0x44,
   0x00, 0x00, 0x00, 0x00, 0x10, 0x00, 0x00, 0x10, 0x80, 0x00, 0x80, 0x08,
   0x00, 0x80, 0x00, 0x40, 0x40, 0x00, 0x04, 0x01, 0x00, 0x02, 0x00, 0x40,
   0x00, 0x60, 0x00, 0x00, 0x01, 0x10, 0x40, 0x00, 0x20, 0x00, 0x48, 0x00,
   0x01, 0x00, 0x03, 0x20, 0x00, 0x00, 0x10, 0x80, 0x00, 0x80, 0x08, 0x00,
   0x00, 0x03, 0x30, 0x00, 0x00, 0x08, 0x01, 0x00, 0x00, 0x00, 0x00, 0x00,
   0x00, 0x00, 0x00, 0x00, 0x20, 0x80, 0x01, 0x18, 0x00, 0x28, 0x00, 0x01,
   0x00, 0x00, 0x40, 0x00, 0x00, 0x10, 0x80, 0x00, 0x80, 0x68, 0xad, 0x00,
   0x0c, 0x0c, 0x40, 0x00, 0x10, 0x6b, 0x2d, 0x03, 0x00, 0x20, 0x00, 0x40,
   0x00, 0x80, 0x01, 0x40, 0x00, 0x06, 0x07, 0x00, 0x10, 0x00, 0xd6, 0x1a,
   0x02, 0x80, 0x00, 0x00, 0x00, 0x00, 0x00, 0x00, 0x00, 0x00, 0x00, 0xe0,
   0x01, 0x00, 0x00, 0x00, 0x00, 0x00, 0x00, 0x00, 0x00, 0x00, 0x00, 0x00,
   0x00, 0x00, 0x00, 0x00, 0xf0, 0x00, 0x00, 0x10, 0x00, 0x00, 0x10, 0x00,
   0x00, 0x00, 0x00, 0x00, 0x00, 0x00, 0x00, 0x00, 0x00, 0x00, 0x00, 0x00,
   0x00, 0x00, 0x00, 0x00, 0x00, 0x00, 0x00, 0x00, 0x00, 0x00, 0x00, 0x00,
   0x00, 0x00, 0x00, 0x00, 0x00, 0x00, 0x00, 0x00, 0x00, 0x00, 0x00, 0x00,
   0x00, 0x00, 0x00, 0x00, 0x00, 0x00, 0x00, 0x00, 0x00, 0x00, 0x00, 0x00,
   0x00, 0x00, 0x00, 0x00, 0x00, 0x00, 0x00, 0x00, 0x00, 0x00, 0x00, 0x00,
   0x00, 0x00, 0x00, 0x00, 0x00, 0x00, 0x00, 0x00, 0x00, 0x00, 0x00, 0x00,
   0x00, 0x00, 0x00, 0x00, 0x00, 0x00, 0x00, 0x00, 0x00, 0x00, 0x00, 0x00,
   0x00, 0x00, 0x00, 0x00, 0x00, 0x00, 0x00, 0x00, 0x00, 0x00, 0x00, 0x00,
   0x00, 0x00, 0x00, 0x00, 0x00, 0x00, 0x00, 0x00, 0x00, 0x00, 0x00 };
